<svg id="heyzel_logo" xmlns="http://www.w3.org/2000/svg" viewBox="0 0 382.27 100.18">
  <path d="m57.69,100.18h-25.73v-36.98h-6.22v36.98H0V.12h25.73v36.98h6.22V.12h25.73v100.06h0ZM34.59,2.63h0v37.1h-11.49V2.63H2.63v94.91h20.47v-36.98h11.49v36.98h20.47V2.63h-20.47Zm1.08,39.97h0l1.79-1.79V5.62h14.72v89.05h-14.72v-35.19l-1.79-1.79h-13.52l-1.92,1.79v35.19H5.5V5.62h14.72v35.19l1.92,1.79h13.52Z"/>
  <path d="m97.9,24.77l-1.91-1.92h-4.31v14.12h14.72v26.21h-14.72v14.24h4.31l1.91-1.91v-12.09h25.73v21.66l-15.32,15.08h-42.37V0h42.37l15.32,15.08v21.66h-25.73v-11.97h0Zm2.63,9.34h20.47v-17.95l-13.77-13.53h-38.66v94.91h38.66l13.77-13.53v-17.95h-20.47v10.53l-3.59,3.35h-7.9v-19.39h14.72v-20.95h-14.72v-19.39h7.9l3.59,3.47v10.41h0Zm-2.39-16.76h-11.97v25.13h14.72v15.2h-14.72v25.13h11.97l5.27-5.03v-8.86h14.72v13.88l-12.09,11.85h-34.59V5.51h34.59l12.09,11.97v13.76h-14.72v-8.74l-5.27-5.15h0Z"/>
  <path d="m187.43,57.69l-15.92,15.56v26.93h-25.85v-27.05l-15.92-15.56V0h25.73v47.87l3.11,2.99,3.11-2.99V0h25.73v57.69h0ZM164.33,2.63h0v46.32l-5.74,5.63-5.74-5.63V2.63h-20.47v53.86l15.92,15.56v25.49h20.59v-25.49l15.92-15.44V2.63h-20.47Zm2.87,47.52h0V5.51h14.72v49.91h-.12l-13.29,12.93-2.51,2.51v23.82h-14.84v-23.82l-2.51-2.51-13.28-12.93h-.12V5.51h14.72v44.64l8.62,8.5,8.62-8.5h0Z"/>
  <path d="m251.81,85.1l-15.32,15.08h-42.37v-39.14l11.13-10.89-.12-.12,7.9-7.66h-18.91V15.08l15.32-15.08h42.25v39.37l-11.01,10.77h.12l-7.9,7.66h18.91v27.29h0Zm-23.1-24.65h0v16.16l-3.59,3.35h-7.9v-10.41l19.87-19.39h-.12l12.09-11.85V2.63h-38.54l-13.76,13.53v23.58h20.47v-16.04l3.59-3.47h7.9v10.41l-19.75,19.39v.12l-12.21,11.97v35.43h38.66l13.76-13.53v-23.58h-20.46Zm2.87,17.35h0v-14.48h14.72v19.51l-12.09,11.85h-34.59v-31.48h.12l13.29-13.05h.12l-.12-.12,9.93-9.69,8.62-8.5v-14.48h-11.97l-5.27,5.15v14.36h-14.72v-19.39l12.09-11.97h34.59v31.6h-.12l-13.28,12.93v.12l-9.93,9.81-8.62,8.38v14.48h11.97l5.27-5.03h0Zm-5.5-54.94h-4.19l-2.03,1.92v10.89l6.22-6.1v-6.7h0Zm-6.22,54.58h4.31l1.92-1.91v-10.89l-6.22,5.98v6.82h0Z"/>
  <path d="m291.55,24.77l-1.92-1.92h-4.31v14.12h14.72v26.21h-14.72v14.24h4.31l1.92-1.91v-12.09h25.73v21.66l-15.32,15.08h-42.37V0h42.37l15.32,15.08v21.66h-25.73v-11.97h0Zm2.63,9.34h20.46v-17.95l-13.76-13.53h-38.66v94.91h38.66l13.76-13.53v-17.95h-20.46v10.53l-3.59,3.35h-7.9v-19.39h14.72v-20.95h-14.72v-19.39h7.9l3.59,3.47v10.41h0Zm-2.39-16.76h-11.97v25.13h14.72v15.2h-14.72v25.13h11.97l5.27-5.03v-8.86h14.72v13.88l-12.09,11.85h-34.59V5.51h34.59l12.09,11.97v13.76h-14.72v-8.74l-5.27-5.15h0Z"/>
  <path d="m324.58,100.18V0h25.73v77.43h4.31l1.92-1.91v-12.09h25.73v21.66l-15.32,15.08h-42.37Zm41.29-2.63h0l13.76-13.53v-17.95h-20.46v10.53l-3.59,3.35h-7.9V2.63h-20.47v94.91h38.66Zm10.89-14.72h0l-12.09,11.85h-34.59V5.51h14.72v77.32h11.97l5.27-5.03v-8.86h14.72v13.88h0Z"/>
</svg>
