<svg xmlns="http://www.w3.org/2000/svg" viewBox="0 0 451.97 500">
  <path fill="#e2e2e4" d="M137.55,240.17h-61.36v-88.77h-14.84v88.77H0V0h61.36v88.77h14.84V0h61.36v240.17h0ZM82.47,6.03h0v89.06h-27.39V6.03H6.28v227.82h48.8v-88.77h27.39v88.77h48.8V6.03h-48.8ZM85.04,101.99h0l4.28-4.31V13.21h35.1v213.75h-35.1v-84.46l-4.28-4.31h-32.25l-4.57,4.31v84.46H13.13V13.21h35.1v84.46l4.57,4.31h32.25Z"/>
  <path fill="#e2e2e4" d="M233.4,59.4l-4.56-4.59h-10.28v33.86h35.11v62.84h-35.11v34.14h10.28l4.56-4.59v-28.98h61.36v51.94l-36.53,36.15h-101.03V0h101.03l36.53,36.15v51.94h-61.36v-28.69h0ZM239.68,81.78h48.8v-43.04L255.66,6.31h-92.17v227.55h92.17l32.82-32.43v-43.04h-48.8v25.25l-8.56,8.03h-18.84v-46.48h35.1v-50.22h-35.1v-46.48h18.84l8.56,8.32v24.97h0ZM233.97,41.61h-28.54v60.26h35.1v36.45h-35.1v60.26h28.54l12.55-12.06v-21.23h35.11v33.29l-28.82,28.41h-82.47V13.2h82.47l28.82,28.69v33h-35.11v-20.95l-12.55-12.34h0Z"/>
  <path fill="#e2e2e4" d="M451.97,138.31l-37.96,37.3v64.56h-61.64v-64.85l-37.96-37.3V0h61.36v114.78l7.42,7.17,7.42-7.17V0h61.36v138.31h0ZM396.89,6.31h0v111.05l-13.7,13.49-13.7-13.49V6.31h-48.8v129.13l37.96,37.3v61.12h49.09v-61.12l37.96-37.02V6.31h-48.8ZM403.73,120.23h0V13.2h35.11v119.65h-.29l-31.68,30.99-5.99,6.03v57.11h-35.39v-57.11l-5.99-6.03-31.67-30.99h-.29V13.2h35.1v107.03l20.55,20.37,20.55-20.37h0Z"/>
  <path fill="#e2e2e4" d="M137.55,463.85l-36.53,36.15H0v-93.83l26.54-26.12-.29-.29,18.83-18.37H0v-65.42l36.53-36.15h100.74v94.4l-26.26,25.83h.29l-18.83,18.37h45.09v65.42h0ZM82.47,404.74h0v38.74l-8.56,8.03h-18.83v-24.96l47.37-46.49h-.29l28.83-28.41v-85.51H39.1l-32.82,32.43v56.53h48.8v-38.45l8.56-8.32h18.83v24.96l-47.09,46.49v.29l-29.11,28.69v84.94h92.18l32.82-32.43v-56.52h-48.8ZM89.32,446.34h0v-34.72h35.1v46.77l-28.82,28.41H13.13v-75.47h.29l31.68-31.28h.29l-.29-.29,23.69-23.24,20.55-20.37v-34.72h-28.54l-12.55,12.34v34.43H13.13v-46.48l28.82-28.69h82.47v75.75h-.29l-31.67,30.99v.29l-23.69,23.53-20.55,20.08v34.72h28.54l12.55-12.06h0ZM76.2,314.63h-9.99l-4.85,4.59v26.12l14.84-14.63v-16.07h0ZM61.36,445.48h10.27l4.57-4.59v-26.12l-14.84,14.35v16.36h0Z"/>
  <path fill="#e2e2e4" d="M233.4,319.22l-4.57-4.59h-10.27v33.86h35.1v62.84h-35.1v34.14h10.27l4.57-4.59v-28.98h61.36v51.94l-36.53,36.15h-101.02v-240.17h101.02l36.53,36.15v51.94h-61.36v-28.69h0ZM239.68,341.6h48.8v-43.04l-32.81-32.43h-92.18v227.55h92.18l32.81-32.43v-43.04h-48.8v25.25l-8.56,8.03h-18.83v-46.48h35.1v-50.22h-35.1v-46.48h18.83l8.56,8.32v24.97h0ZM233.97,301.43h-28.54v60.26h35.11v36.45h-35.11v60.26h28.54l12.55-12.06v-21.23h35.1v33.29l-28.82,28.41h-82.47v-213.78h82.47l28.82,28.69v33h-35.1v-20.95l-12.55-12.34h0Z"/>
  <path fill="#e2e2e4" d="M314.41,500v-240.17h61.36v185.65h10.27l4.57-4.59v-28.98h61.36v51.94l-36.53,36.15h-101.02ZM412.87,493.69h0l32.81-32.43v-43.04h-48.8v25.25l-8.56,8.03h-18.83v-185.37h-48.8v227.55h92.18ZM438.83,458.4h0l-28.82,28.41h-82.48v-213.78h35.1v185.37h28.54l12.55-12.06v-21.23h35.1v33.29h0Z"/>
</svg>
